<?xml version="1.0" encoding="UTF-8" standalone="no"?>
<svg
   version="1.1"
   id="Layer_1"
   x="0px"
   y="0px"
   viewBox="0 0 98.1 118"
   style="enable-background:new 0 0 98.1 118;"
   xml:space="preserve"
   sodipodi:docname="Svelte_Chi_Logo.svg"
   xmlns:sodipodi="http://sodipodi.sourceforge.net/DTD/sodipodi-0.dtd"
   xmlns="http://www.w3.org/2000/svg"
   xmlns:svg="http://www.w3.org/2000/svg"><defs
   id="defs103" /><sodipodi:namedview
   id="namedview101"
   pagecolor="#ffffff"
   bordercolor="#666666"
   borderopacity="1.0"

   showgrid="false"
    />
<style
   type="text/css"
   id="style94">
	.st0{fill:#FF3E00;}
	.st1{fill:#FFFFFF;}
</style>
<path
   class="st0"
   d="M91.8,15.6C80.9-0.1,59.2-4.7,43.6,5.2L16.1,22.8C8.6,27.5,3.4,35.2,1.9,43.9c-1.3,7.3-0.2,14.8,3.3,21.3  c-2.4,3.6-4,7.6-4.7,11.8c-1.6,8.9,0.5,18.1,5.7,25.4c11,15.7,32.6,20.3,48.2,10.4l27.5-17.5c7.5-4.7,12.7-12.4,14.2-21.1  c1.3-7.3,0.2-14.8-3.3-21.3c2.4-3.6,4-7.6,4.7-11.8C99.2,32.1,97.1,22.9,91.8,15.6"
   id="path96"
   style="fill:#b3ddf2;fill-opacity:1" />
<path
   class="st1"
   d="M40.9,103.9c-8.9,2.3-18.2-1.2-23.4-8.7c-3.2-4.4-4.4-9.9-3.5-15.3c0.2-0.9,0.4-1.7,0.6-2.6l0.5-1.6l1.4,1  c3.3,2.4,6.9,4.2,10.8,5.4l1,0.3l-0.1,1c-0.1,1.4,0.3,2.9,1.1,4.1c1.6,2.3,4.4,3.4,7.1,2.7c0.6-0.2,1.2-0.4,1.7-0.7L65.5,72  c1.4-0.9,2.3-2.2,2.6-3.8c0.3-1.6-0.1-3.3-1-4.6c-1.6-2.3-4.4-3.3-7.1-2.6c-0.6,0.2-1.2,0.4-1.7,0.7l-10.5,6.7  c-1.7,1.1-3.6,1.9-5.6,2.4c-8.9,2.3-18.2-1.2-23.4-8.7c-3.1-4.4-4.4-9.9-3.4-15.3c0.9-5.2,4.1-9.9,8.6-12.7l27.5-17.5  c1.7-1.1,3.6-1.9,5.6-2.5c8.9-2.3,18.2,1.2,23.4,8.7c3.2,4.4,4.4,9.9,3.5,15.3c-0.2,0.9-0.4,1.7-0.7,2.6l-0.5,1.6l-1.4-1  c-3.3-2.4-6.9-4.2-10.8-5.4l-1-0.3l0.1-1c0.1-1.4-0.3-2.9-1.1-4.1c-1.6-2.3-4.4-3.3-7.1-2.6c-0.6,0.2-1.2,0.4-1.7,0.7L32.4,46.1  c-1.4,0.9-2.3,2.2-2.6,3.8s0.1,3.3,1,4.6c1.6,2.3,4.4,3.3,7.1,2.6c0.6-0.2,1.2-0.4,1.7-0.7l10.5-6.7c1.7-1.1,3.6-1.9,5.6-2.5  c8.9-2.3,18.2,1.2,23.4,8.7c3.2,4.4,4.4,9.9,3.5,15.3c-0.9,5.2-4.1,9.9-8.6,12.7l-27.5,17.5C44.8,102.5,42.9,103.3,40.9,103.9"
   id="path98" />
<g id="layer1"><path
     d="m 9.311146,46.28785 2.072778,7.63542 7.72581,-2.048527 -5.653032,5.586892 5.653032,5.586894 L 11.383924,61 9.311146,68.635419 7.238367,61 -0.4874426,63.048529 5.1655897,57.461635 -0.4874426,51.874743 7.238367,53.92327 Z m 26.380815,0 2.072778,7.63542 7.72581,-2.048527 -5.653031,5.586892 5.653031,5.586894 L 37.764739,61 35.691961,68.635419 33.619182,61 l -7.72581,2.048529 5.653032,-5.586894 -5.653032,-5.586892 7.72581,2.048527 z m 26.380814,0 2.072779,7.63542 7.725809,-2.048527 -5.65303,5.586892 5.65303,5.586894 L 64.145554,61 62.072775,68.635419 60,61 52.274186,63.048529 57.927217,57.461635 52.274186,51.874743 60,53.92327 Z m 26.380817,0 2.072774,7.63542 7.725815,-2.048527 -5.653035,5.586892 5.653035,5.586894 L 90.526366,61 88.453592,68.635419 86.380813,61 l -7.72581,2.048529 5.653031,-5.586894 -5.653031,-5.586892 7.72581,2.048527 z"
     fill="#ff0000"
     id="path187"
     style="stroke-width:0.187329" /></g></svg>
